<svg width="20px" height="20px" viewBox="0 0 20 20" version="1.1" xmlns="http://www.w3.org/2000/svg">
    <title>F31DF69F-A409-4711-8FF4-D6254E8265F4@1x</title>
    <g id="Glyphs" stroke="none" stroke-width="1" fill="none" fill-rule="evenodd">
        <g id="Glyphs/Bold/search/24" transform="translate(-2.000000, -2.000000)" fill="#000000">
            <path d="M16,15 L18,16 L22,20 L20,22 L16,18 L15,16 L16,15 Z M9.5,2 C13.6421356,2 17,5.35786438 17,9.5 C17,13.6421356 13.6421356,17 9.5,17 C5.35786438,17 2,13.6421356 2,9.5 C2,5.35786438 5.35786438,2 9.5,2 Z M9.5,4 C6.46243388,4 4,6.46243388 4,9.5 C4,12.5375661 6.46243388,15 9.5,15 C12.5375661,15 15,12.5375661 15,9.5 C15,6.46243388 12.5375661,4 9.5,4 Z" id="Combined-Shape"></path>
        </g>
    </g>
</svg>
